<?xml version="1.0" encoding="UTF-8"?>
<!-- Generator: Adobe Illustrator 25.1.0, SVG Export Plug-In . SVG Version: 6.00 Build 0)  -->
<svg version="1.1" id="Ebene_1" xmlns="http://www.w3.org/2000/svg" xmlns:xlink="http://www.w3.org/1999/xlink" x="0px" y="0px" viewBox="0 0 900 244.7" style="enable-background:new 0 0 900 244.7;" xml:space="preserve">
<style type="text/css">
	.st0{fill-rule:evenodd;clip-rule:evenodd;fill:#009982;}
	.st1{fill-rule:evenodd;clip-rule:evenodd;fill:#FFFFFF;}
	.st2{fill-rule:evenodd;clip-rule:evenodd;}
</style>
<g>
	<path class="st0" d="M0.89,146.22c34.63-17.83,85.35-46.64,145.55-88.78V43.3C93.46,77.96,39.57,105.8,0.89,124.21V146.22   L0.89,146.22z"/>
	<path class="st0" d="M0.89,103.99c38.55-15.71,92.44-39.97,145.55-71.57v-6.98C96.52,50.21,44.65,65.71,0.89,75.37V103.99   L0.89,103.99z"/>
	<path class="st0" d="M146.44,146.29V75.16c-33.14,27.93-65.96,52.12-93.52,71.13H146.44L146.44,146.29z"/>
	<path class="st0" d="M34.31,146.29c26.18-15.54,57.95-35.82,89.6-59.52c7.38-5.53,14.92-11.23,22.54-17.12v-8.82   C99.61,95.94,51.8,125.21,14.46,146.29H34.31L34.31,146.29z"/>
	<path class="st0" d="M0.89,65.02c42.57-7.49,94.66-20.96,145.55-45.14v-7.93C95.15,34.97,43.82,44.74,0.89,48.21V65.02L0.89,65.02z   "/>
	<path class="st0" d="M0.89,0v40.75c3.18-0.2,6.42-0.42,9.73-0.68c35.39-2.72,83.69-8.98,135.82-31.51V0H0.89L0.89,0z"/>
	<path class="st1" d="M0.89,40.75v7.46c42.93-3.47,94.26-13.24,145.55-36.26V8.55C94.32,31.09,46.02,37.35,10.62,40.07   C7.31,40.33,4.07,40.55,0.89,40.75L0.89,40.75z"/>
	<path class="st1" d="M0.89,75.37c43.76-9.66,95.63-25.16,145.55-49.93v-5.56C95.55,44.07,43.46,57.54,0.89,65.02V75.37L0.89,75.37z   "/>
	<path class="st1" d="M0.89,124.21C39.57,105.8,93.46,77.96,146.44,43.3V32.42c-53.12,31.59-107,55.86-145.55,71.57V124.21   L0.89,124.21z"/>
	<path class="st1" d="M34.31,146.29h18.61c27.57-19.01,60.38-43.2,93.52-71.13v-5.51c-7.62,5.89-15.16,11.59-22.54,17.12   C92.26,110.47,60.49,130.75,34.31,146.29L34.31,146.29z"/>
	<path class="st1" d="M0.89,146.29h13.57c37.35-21.08,85.15-50.34,131.99-85.46v-3.39C86.24,99.58,35.52,128.39,0.89,146.22V146.29   L0.89,146.29z"/>
	<path class="st2" d="M195.46,146.22h19.56v-42.77H248V88.08h-32.98V64.05h34.66V48.68h-54.22V146.22L195.46,146.22z M263.09,146.22   h18.72V119.8c0-10.33,0-29.35,15.23-29.35c3.35,0,6.71,0.55,8.39,1.54V73.13c-1.96-0.56-3.91-0.56-5.73-0.56   c-11.18,0-18.86,11.33-19.7,18.02h-0.28V74.25h-16.63V146.22L263.09,146.22z M319.4,94.1c6.29-4.76,14.25-7.83,22.22-7.83   c11.03,0,16.21,3.91,16.21,15.51h-10.34c-7.82,0-17.05,0.69-24.17,4.19c-7.13,3.5-12.29,9.78-12.29,20.55   c0,13.68,12.43,21.38,25.14,21.38c8.52,0,17.89-4.47,22.22-12.44h0.28c0.14,2.23,0.14,6.97,0.84,10.76h16.49   c-0.42-5.6-0.7-10.64-0.84-16.08c-0.14-5.31-0.28-10.76-0.28-18.03v-9.22c0-21.24-9.08-30.32-31.02-30.32   c-7.97,0-17.74,2.1-25.01,5.45L319.4,94.1L319.4,94.1z M328.89,125.4c0-11.05,12.44-12.44,20.82-12.44h8.11   c0,5.6-0.84,10.75-3.92,14.82c-2.93,3.89-7.4,6.43-13.13,6.43C334.07,134.21,328.89,131.54,328.89,125.4L328.89,125.4z    M456.61,74.25h-18.73v35.21c0,9.21-2.93,23.89-16.49,23.89c-12.02,0-12.16-11.88-12.16-20.69V74.25h-18.72v45.41   c0,16.21,7.41,28.23,24.45,28.23c9.78,0,17.88-4.47,23.61-11.46h0.29v9.79h17.75V74.25L456.61,74.25z M475.91,146.22h18.71V111   c0-9.22,2.94-23.9,16.49-23.9c12.01,0,12.15,11.88,12.15,20.68v38.44H542V100.8c0-16.21-7.41-28.23-24.46-28.23   c-9.78,0-17.75,3.22-23.61,11.46h-0.3v-9.78h-17.72V146.22L475.91,146.22z M561.27,146.22h18.73V111c0-9.22,2.93-23.9,16.5-23.9   c12.01,0,12.14,11.88,12.14,20.68l0,38.44h18.71V100.8c0-16.21-7.4-28.23-24.44-28.23c-9.78,0-17.88,4.47-22.61,11.46h-0.3V41.42   h-18.73V146.22L561.27,146.22z M639.22,110.73c0,20.66,13.85,37.17,37.61,37.17c23.89,0,37.71-16.5,37.71-37.17   c0-23.76-16.33-38.15-37.71-38.15C655.59,72.57,639.22,86.97,639.22,110.73L639.22,110.73z M658.8,108.48   c0-10.76,5.87-21.38,18.03-21.38c12.3,0,18.16,10.34,18.16,21.38c0,12.02-3.76,24.88-18.16,24.88   C662.56,133.36,658.8,120.36,658.8,108.48L658.8,108.48z M733.27,146.22h18.72V87.94h16.34V74.25h-16.34v-8.95   c0-5.58,1.96-11.04,8.26-11.04c4.05,0,6.42,1.54,8.08,2.53l1.54-15.51c-3.63-0.84-8.94-1.54-13.69-1.54   c-14.82,0-22.92,10.06-22.92,24.45v10.06h-13.83v13.69h13.83V146.22L733.27,146.22z M793.07,103.17   c0.86-9.64,6.15-16.91,16.63-16.91c10.49,0,14.69,7.83,15.23,16.91H793.07L793.07,103.17z M837.51,126.94   c-6.99,3.91-14.81,7.27-23.9,7.27c-11.58,0-19.68-6.57-20.54-18.18l49.75,0c0-25.15-7.54-43.45-34.24-43.45   c-22.34,0-33.38,17.18-33.38,38c0,23.63,13.82,37.32,37.58,37.32c10.07,0,17.87-1.96,24.73-5.73V126.94L837.51,126.94z    M856.23,146.22h18.73V119.8c0-10.33,0-29.35,15.21-29.35c3.36,0,6.73,0.55,8.4,1.54V73.13c-1.97-0.56-3.92-0.56-5.73-0.56   c-11.18,0-18.86,11.33-19.7,18.02h-0.29V74.25h-16.62V146.22L856.23,146.22z"/>
	<polygon class="st2" points="787.32,195.91 796.78,195.91 796.78,215.63 815.7,215.63 815.7,195.91 825.15,195.91 825.15,244.7    815.7,244.7 815.7,223.31 796.78,223.31 796.78,244.7 787.32,244.7 787.32,195.91  "/>
	<polygon class="st2" points="837.78,195.91 847.24,195.91 847.24,215.63 866.16,215.63 866.16,195.91 875.61,195.91 875.61,244.7    866.16,244.7 866.16,223.31 847.24,223.31 847.24,244.7 837.78,244.7 837.78,195.91  "/>
	<polygon class="st2" points="889.12,195.91 898.58,195.91 898.58,244.7 889.12,244.7 889.12,195.91  "/>
</g>
</svg>
