<?xml version="1.0" encoding="UTF-8"?>
<svg version="1.1" id="Ebene_1" xmlns="http://www.w3.org/2000/svg" xmlns:xlink="http://www.w3.org/1999/xlink" x="0px" y="0px" viewBox="0 0 145.56 146.29" style="enable-background:new 0 0 900 244.7;" xml:space="preserve">
<style type="text/css">
	.st0{fill-rule:evenodd;clip-rule:evenodd;fill:#009982;}
	.st1{fill-rule:evenodd;clip-rule:evenodd;fill:#FFFFFF;}
	.st2{fill-rule:evenodd;clip-rule:evenodd;}
</style>
<g transform="translate(-0.89)">
	<path class="st0" d="M 0.89,146.22 C 35.52,128.39 86.24,99.58 146.44,57.44 V 43.3 C 93.46,77.96 39.57,105.8 0.89,124.21 Z"/>
	<path class="st0" d="M 0.89,103.99 C 39.44,88.28 93.33,64.02 146.44,32.42 V 25.44 C 96.52,50.21 44.65,65.71 0.89,75.37 Z"/>
	<path class="st0" d="M 146.44,146.29 V 75.16 c -33.14,27.93 -65.96,52.12 -93.52,71.13 z"/>
	<path class="st0" d="m 34.31,146.29 c 26.18,-15.54 57.95,-35.82 89.6,-59.52 7.38,-5.53 14.92,-11.23 22.54,-17.12 V 60.83 C 99.61,95.94 51.8,125.21 14.46,146.29 Z"/>
	<path class="st0" d="M 0.89,65.02 C 43.46,57.53 95.55,44.06 146.44,19.88 V 11.95 C 95.15,34.97 43.82,44.74 0.89,48.21 Z"/>
	<path class="st0" d="M 0.89,0 V 40.75 C 4.07,40.55 7.31,40.33 10.62,40.07 46.01,37.35 94.31,31.09 146.44,8.56 V 0 Z"/>

	<path class="st1" d="m 0.89,40.75 v 7.46 C 43.82,44.74 95.15,34.97 146.44,11.95 V 8.55 C 94.32,31.09 46.02,37.35 10.62,40.07 7.31,40.33 4.07,40.55 0.89,40.75 Z"/>
	<path class="st1" d="M 0.89,75.37 C 44.65,65.71 96.52,50.21 146.44,25.44 V 19.88 C 95.55,44.07 43.46,57.54 0.89,65.02 Z"/>
	<path class="st1" d="M 0.89,124.21 C 39.57,105.8 93.46,77.96 146.44,43.3 V 32.42 C 93.32,64.01 39.44,88.28 0.89,103.99 Z"/>
	<path class="st1" d="m 34.31,146.29 h 18.61 c 27.57,-19.01 60.38,-43.2 93.52,-71.13 v -5.51 c -7.62,5.89 -15.16,11.59 -22.54,17.12 -31.64,23.7 -63.41,43.98 -89.59,59.52 z"/>
	<path class="st1" d="M 0.89,146.29 H 14.46 C 51.81,125.21 99.61,95.95 146.45,60.83 V 57.44 C 86.24,99.58 35.52,128.39 0.89,146.22 Z"/>
</g>
</svg>
