<?xml version="1.0" encoding="utf-8"?>
<!-- Generator: Adobe Illustrator 25.0.1, SVG Export Plug-In . SVG Version: 6.00 Build 0)  -->
<svg version="1.1" id="Warstwa_1" xmlns="http://www.w3.org/2000/svg" xmlns:xlink="http://www.w3.org/1999/xlink" x="0px" y="0px"
	 viewBox="0 0 751.2 184.2" style="enable-background:new 0 0 751.2 184.2;" xml:space="preserve">
<style type="text/css">
	.st0{fill-rule:evenodd;clip-rule:evenodd;fill:#FFFFFF;}
	.st1{enable-background:new    ;}
	.st2{fill:#FFFFFF;}
</style>
<polygon class="st0" points="179.1,49.6 133.6,140.2 88,49.3 178.6,49.3 153.8,0.5 1.9,0.5 94.1,184.4 173.1,184.4 240.7,49.6 "/>
<path class="st0" d="M386.4,50.4h39.1l-62.7,126.5h-28L272,50.4h39.1l37.7,84.8L386.4,50.4L386.4,50.4z M551.2,50.4h39.1
	l-62.7,126.5h-28L436.8,50.4h39.1l37.7,84.8L551.2,50.4L551.2,50.4z M688.3,178.7c-15.5,0-28.8-2.2-39.9-6.7
	c-11-4.5-19.5-10.9-25.3-19.4c-5.8-8.5-8.7-18.7-8.7-30.7v-17.2c0-11.9,2.8-22,8.7-30.4c5.8-8.4,14.2-14.8,25.3-19.2
	c11-4.4,24.3-6.6,39.9-6.6c8.9,0,17.3,0.8,25.2,2.4c7.8,1.6,14.9,3.9,21.3,6.9c6.3,3,11.5,6.7,15.7,10.9l0,0l-26,18.5l0,0
	c-4.5-3.5-9.6-6.2-15.5-8.1c-5.9-1.9-12-2.8-18.5-2.8c-11.9,0-21.1,2.5-27.7,7.4c-6.5,4.9-9.8,11.9-9.8,20.9V122
	c0,9.1,3.2,16.3,9.8,21.3c6.6,5,15.8,7.6,27.7,7.6c6.6,0,12.8-1,18.7-3c5.9-2,11-4.9,15.3-8.6l0,0l26,19.7l0,0
	c-4.3,4.2-9.6,7.8-15.8,10.8c-6.3,2.9-13.3,5.2-21.2,6.7C705.6,177.9,697.2,178.7,688.3,178.7z"/>
<g class="st1">
	<path class="st2" d="M204.5,183.4v-18.9h-7.1v-2.5h17v2.5h-7.1v18.9H204.5z"/>
	<path class="st2" d="M217.3,183.4v-21.5h4.3l5.1,15.2c0.5,1.4,0.8,2.5,1,3.2c0.2-0.8,0.6-1.9,1.1-3.4l5.1-14.9h3.8v21.5h-2.7v-18
		l-6.2,18h-2.6l-6.2-18.3v18.3H217.3z"/>
</g>
<text transform="matrix(1 0 0 1 337.0771 -60.6152)" style="display:none;enable-background:new    ; font-family:'MyriadPro-Regular'; font-size:12px;">Lorem ipsum</text>
</svg>
