<?xml version="1.0" encoding="UTF-8" standalone="no"?>
<svg
   xmlns:dc="http://purl.org/dc/elements/1.1/"
   xmlns:cc="http://creativecommons.org/ns#"
   xmlns:rdf="http://www.w3.org/1999/02/22-rdf-syntax-ns#"
   xmlns:svg="http://www.w3.org/2000/svg"
   xmlns="http://www.w3.org/2000/svg"
   viewBox="0 0 998.1333 265.56"
   height="265.56"
   width="998.1333"
   xml:space="preserve"
   id="svg2"
   version="1.1"><metadata
     id="metadata8"><rdf:RDF><cc:Work
         rdf:about=""><dc:format>image/svg+xml</dc:format><dc:type
           rdf:resource="http://purl.org/dc/dcmitype/StillImage" /><dc:title></dc:title></cc:Work></rdf:RDF></metadata><defs
     id="defs6" /><g
     transform="matrix(1.3333333,0,0,-1.3333333,0,265.56)"
     id="g10"><g
       transform="scale(0.1)"
       id="g12"><path
         id="path14"
         style="fill:#4372c1;fill-opacity:1;fill-rule:evenodd;stroke:none"
         d="M 1772.41,1499.86 1317.83,593.75 861.848,1502.77 h 905.242 l -248,488.9 H 0 L 922.93,151.988 h 789.84 l 676.2,1347.872 h -616.56" /><path
         id="path16"
         style="fill:#100f0e;fill-opacity:1;fill-rule:evenodd;stroke:none"
         d="m 6864.67,208.719 c -155.44,0 -288.38,22.461 -398.78,66.953 -110.45,44.918 -195.03,109.379 -252.72,194.219 -58.2,85.238 -86.74,187.168 -86.74,306.519 v 171.75 c 0,118.93 28.54,219.99 86.74,303.99 57.69,84.01 142.27,148.09 252.72,192.16 110.4,43.68 243.34,65.71 398.78,65.71 89.04,0 173.04,-7.91 252.18,-23.71 78.53,-15.81 149.38,-38.65 212.56,-69.02 62.64,-29.97 114.79,-66.57 156.57,-109.39 v 0 l -260.4,-185.49 v 0 c -44.45,34.95 -95.56,61.97 -154.93,80.7 -58.74,18.72 -120.25,27.87 -185.07,27.87 -118.69,0 -210.99,-24.57 -276.9,-73.62 -65.36,-49.08 -97.75,-118.97 -97.75,-209.2 V 776.41 c 0,-91.519 32.39,-162.648 97.75,-212.949 65.91,-50.332 158.21,-75.711 276.9,-75.711 65.91,0 127.96,10.012 186.74,30.359 59.33,20.403 109.86,49.09 153.26,86.5 v 0 l 260.4,-197.097 v 0 c -42.9,-42.43 -95.61,-78.203 -158.21,-108.141 -63.21,-29.543 -133.49,-52 -212.04,-67.383 -78.02,-15.367 -162.02,-23.269 -251.06,-23.269 z M 5493.57,1491.72 h 391.15 L 5257.35,227.012 H 4977.22 L 4349.38,1491.72 h 391.07 l 376.83,-847.982 376.29,847.982 z m -1647.97,0 h 391.15 L 3609.42,227.012 H 3329.29 L 2701.41,1491.72 h 391.08 l 376.86,-847.982 376.25,847.982 v 0" /><g
         transform="scale(10)"
         id="g18"><text
           id="text22"
           style="font-variant:normal;font-weight:normal;font-size:14px;font-family:ArialMT;-inkscape-font-specification:ArialMT;writing-mode:lr-tb;fill:#4574c3;fill-opacity:1;fill-rule:nonzero;stroke:none"
           transform="matrix(1,0,0,-1,192.176,19.2398)"><tspan
             id="tspan20"
             y="0"
             x="0 8.551754">TM</tspan></text>
</g></g></g></svg>